<svg xmlns="http://www.w3.org/2000/svg">
    <symbol viewBox="0 0 42 42" id="logo">
    <title>logo</title>
      <path d="M21.178,5.683c0.191,0,0.544,0.064,1.056,0.192c0.512,0.128,0.88,0.192,1.104,0.192h2.111h0.816l1.584-0.288l0.672,0.288
    h1.2l1.2-0.384h1.056c0.352,0,0.712,0.16,1.08,0.48c0.367,0.32,0.552,0.688,0.552,1.104v2.688c0,0.384-0.104,0.768-0.312,1.152
    c-0.209,0.384-0.504,0.576-0.889,0.576c-0.736-0.384-1.424-0.736-2.063-1.056c-0.545-0.256-1.08-0.504-1.608-0.744
    c-0.528-0.24-0.904-0.36-1.128-0.36h-1.344c-0.096,0-0.264,0.008-0.504,0.024c-0.24,0.017-0.48,0.048-0.721,0.096
    c-0.239,0.048-0.455,0.128-0.647,0.24c-0.192,0.113-0.288,0.264-0.288,0.456v1.728v2.16v1.728v0.768
    c0,0.257,0.111,0.449,0.336,0.576c0.224,0.128,0.487,0.216,0.792,0.264c0.304,0.048,0.607,0.08,0.912,0.096
    c0.304,0.017,0.52,0.024,0.648,0.024c0.735,0,1.287-0.088,1.655-0.264c0.368-0.176,0.648-0.376,0.84-0.6
    c0.192-0.224,0.344-0.424,0.456-0.6c0.112-0.175,0.28-0.264,0.504-0.264c0.353,0,0.641,0.08,0.864,0.24
    c0.224,0.161,0.336,0.336,0.336,0.528l-0.527,2.688c0.191,0.417,0.239,0.672,0.144,0.768c-0.096,0.096-0.144,0.24-0.144,0.432
    c0,0.288,0.079,0.513,0.239,0.672c0.097,0.097,0.192,0.177,0.288,0.24c0,0.416-0.144,0.815-0.432,1.2
    c-0.288,0.384-0.545,0.576-0.769,0.576c-0.353,0-0.607-0.137-0.768-0.408s-0.336-0.576-0.528-0.912
    c-0.191-0.336-0.439-0.648-0.744-0.936c-0.304-0.289-0.775-0.433-1.415-0.433c-0.257,0-0.537,0.008-0.841,0.024
    c-0.304,0.017-0.592,0.064-0.863,0.144c-0.272,0.081-0.504,0.216-0.696,0.408c-0.192,0.192-0.288,0.448-0.288,0.769v0.815
    c0,0.257-0.064,0.575-0.192,0.96c-0.128,0.384-0.191,0.816-0.191,1.296c0,0.288,0.016,0.504,0.048,0.647
    c0.031,0.145,0.072,0.281,0.12,0.408c0.048,0.129,0.096,0.297,0.144,0.504c0.048,0.209,0.072,0.537,0.072,0.984v0.385
    c0,0.416,0.104,0.824,0.312,1.223c0.208,0.401,0.424,0.697,0.648,0.889c0.288,0.129,0.632,0.24,1.032,0.336
    c0.399,0.096,0.775,0.191,1.128,0.288c0.415,0.128,0.848,0.239,1.296,0.336c0.16,0,0.336,0.032,0.528,0.097
    c0.096,0.031,0.191,0.047,0.288,0.047c0.191,0,0.391,0.08,0.6,0.24c0.208,0.16,0.312,0.336,0.312,0.528
    c0,0.353-0.119,0.632-0.359,0.84s-0.513,0.368-0.816,0.479c-0.305,0.112-0.6,0.192-0.888,0.24c-0.288,0.049-0.48,0.072-0.576,0.072
    c-0.448,0-0.815-0.023-1.104-0.072c-0.288-0.048-0.537-0.096-0.744-0.144c-0.209-0.048-0.4-0.097-0.576-0.144
    c-0.177-0.049-0.36-0.072-0.552-0.072h-2.641h-1.632c-0.832,0-1.536-0.08-2.112-0.24c-0.32-0.096-0.593-0.191-0.816-0.288
    c-0.449,0-0.768,0.009-0.96,0.024c-0.192,0.016-0.353,0.104-0.48,0.264c-0.064,0.063-0.185,0.12-0.36,0.168
    c-0.176,0.048-0.456,0.072-0.84,0.072h-0.96h-0.768c-0.288,0-0.656-0.12-1.104-0.36c-0.448-0.239-0.672-0.552-0.672-0.937
    c0-0.318,0.136-0.575,0.408-0.768c0.271-0.191,0.576-0.328,0.912-0.408c0.336-0.079,0.672-0.127,1.008-0.144
    c0.336-0.016,0.552-0.024,0.648-0.024h0.528h1.2h1.344c0.096,0,0.208-0.016,0.336-0.048c0.127-0.031,0.271-0.079,0.432-0.144
    c0.16-0.064,0.336-0.145,0.528-0.24h0.288c0.416,0,0.688-0.207,0.816-0.624c0.063-0.192,0.096-0.415,0.096-0.672v-0.815v-0.816
    l-0.384-2.641l0.384-1.199c-0.064-0.32-0.128-0.625-0.191-0.912c-0.064-0.256-0.112-0.504-0.145-0.744s-0.048-0.408-0.048-0.504
    v-1.344v-2.496c0.064-0.319,0.128-0.624,0.192-0.912c0.063-0.255,0.111-0.504,0.144-0.744c0.032-0.24,0.048-0.408,0.048-0.504
    v-1.344c0-0.096-0.023-0.328-0.071-0.696c-0.048-0.368-0.137-0.76-0.265-1.176c-0.128-0.416-0.296-0.784-0.503-1.104
    c-0.208-0.319-0.456-0.48-0.744-0.48c-0.449,0-0.968,0.168-1.56,0.504c-0.592,0.336-1.097,0.617-1.512,0.84
    c-0.448,0.192-1.056,0.496-1.824,0.912c-0.768,0.417-1.457,0.816-2.064,1.2c-0.256,0.224-0.48,0.617-0.672,1.176
    c-0.192,0.561-0.369,1.145-0.528,1.752c-0.192,0.705-0.368,1.473-0.528,2.304v1.584c0,0.448-0.144,0.872-0.432,1.272
    s-0.632,0.768-1.032,1.104c-0.401,0.336-0.824,0.6-1.272,0.792c-0.449,0.192-0.816,0.288-1.104,0.288
    c-0.672,0-1.128-0.248-1.368-0.744c-0.24-0.496-0.36-0.951-0.36-1.367c0-0.641,0.096-1.369,0.288-2.185
    c0.192-0.816,0.456-1.632,0.792-2.448c0.336-0.816,0.705-1.6,1.104-2.352c0.4-0.751,0.824-1.399,1.272-1.944
    c0.672-1.087,1.447-2.032,2.328-2.832c0.88-0.799,1.816-1.479,2.808-2.04c0.992-0.56,2.008-1.04,3.048-1.44
    c1.04-0.4,2.04-0.744,3-1.032c0.064-0.128,0.232-0.2,0.504-0.216c0.271-0.016,0.567-0.007,0.888,0.024
    C20.377,5.522,20.761,5.586,21.178,5.683z"/>
    </symbol>
 <symbol viewBox="0 0 143 143" id="logo-boob">
    <title>logo</title>
      <path fill="#ffffff" d=" M 0.00 0.00 L 143.00 0.00 L 143.00 143.00 L 0.00 143.00 L 0.00 0.00 Z" />
<path fill="#010101" d=" M 14.03 49.02 C 15.42 46.85 16.71 44.36 19.12 43.16 C 19.47 43.59 20.17 44.45 20.52 44.88 C 15.77 50.88 12.19 58.12 12.50 65.95 C 12.40 79.22 22.27 91.68 35.20 94.65 C 46.37 97.56 58.95 93.19 65.93 84.00 C 67.96 81.70 68.74 78.55 70.89 76.35 L 71.98 76.53 C 75.34 83.32 80.31 89.60 87.42 92.70 C 99.90 98.85 116.26 94.63 124.23 83.24 C 132.20 72.70 131.76 56.90 123.24 46.80 C 121.71 45.75 121.73 43.11 124.09 43.40 C 135.81 54.99 135.76 75.65 124.56 87.60 C 114.54 99.20 96.11 101.98 83.13 93.81 C 78.13 90.85 74.15 86.43 71.24 81.44 C 66.10 90.64 56.53 97.30 45.97 98.33 C 33.27 99.90 20.12 93.17 13.86 82.04 C 8.01 72.05 8.04 58.94 14.03 49.02 Z" />
<path fill="#010101" d=" M 33.33 70.35 C 36.53 69.15 40.07 72.57 38.96 75.81 C 38.15 79.02 33.55 80.12 31.43 77.54 C 29.27 75.33 30.37 71.20 33.33 70.35 Z" />
<path fill="#010101" d=" M 105.62 70.68 C 108.52 68.92 112.60 71.56 112.17 74.94 C 112.03 78.05 108.15 80.10 105.52 78.39 C 102.57 76.86 102.63 72.14 105.62 70.68 Z" />
<path fill="#ffffff" d=" M 33.65 73.64 C 34.25 72.41 36.92 73.59 36.00 74.96 C 35.54 77.35 32.09 75.29 33.65 73.64 Z" />
<path fill="#ffffff" d=" M 106.77 76.34 C 106.05 74.84 106.41 72.54 108.58 73.23 C 110.09 74.79 108.34 76.06 106.77 76.34 Z" />
    </symbol>
  <symbol viewBox="0 0 29 29" id="svg-heart-29px-p0">
    <title>heart-29px</title>
    <path d="M16.215 23.716c-.348.288-.984.826-1.376 1.158-.2.166-.49.166-.68 0-.36-.307-.92-.78-1.22-1.03C9.22 20.734 3 15.527 3 10.734 3 7.02 5.916 4 9.5 4c1.948 0 3.77.898 5 2.434C15.73 4.898 17.552 4 19.5 4c3.584 0 6.5 3.02 6.5 6.734 0 4.9-6.125 9.96-9.785 12.982zM19.5 5.2c-1.774 0-3.423.923-4.41 2.468-.13.202-.35.323-.59.323-.238 0-.458-.12-.59-.32-.988-1.54-2.637-2.47-4.41-2.47-2.922 0-5.3 2.49-5.3 5.54 0 4.23 6.19 9.41 9.517 12.19.217.18.566.48.783.66l.952-.79c3.496-2.88 9.348-7.72 9.348-12.05 0-3.05-2.378-5.53-5.3-5.53z"
    />
  </symbol>
  <symbol viewBox="0 0 29 29" id="svg-heartFilled-29px-p0">
    <title>heart-filled-29px</title>
    <path d="M19.5 4c-1.948 0-3.77.898-5 2.434C13.27 4.898 11.448 4 9.5 4 5.916 4 3 7.02 3 10.734c0 4.793 6.227 10 9.95 13.11.296.25.853.723 1.212 1.03.196.166.48.166.677 0 .39-.332 1.02-.87 1.37-1.158 3.66-3.022 9.79-8.08 9.79-12.982C26 7.02 23.08 4 19.5 4z"
    fill-rule="evenodd" />
  </symbol>
  <symbol viewBox="-480.5 272.5 21 21" id="svg-more-25px-p0">
    <title>more-25px</title>
    <path d="M-463 284.6c.9 0 1.6-.7 1.6-1.6s-.7-1.6-1.6-1.6-1.6.7-1.6 1.6.7 1.6 1.6 1.6zm0 .9c-1.4 0-2.5-1.1-2.5-2.5s1.1-2.5 2.5-2.5 2.5 1.1 2.5 2.5-1.1 2.5-2.5 2.5zm-7-.9c.9 0 1.6-.7 1.6-1.6s-.7-1.6-1.6-1.6-1.6.7-1.6 1.6.7 1.6 1.6 1.6zm0 .9c-1.4 0-2.5-1.1-2.5-2.5s1.1-2.5 2.5-2.5 2.5 1.1 2.5 2.5-1.1 2.5-2.5 2.5zm-7-.9c.9 0 1.6-.7 1.6-1.6s-.7-1.6-1.6-1.6-1.6.7-1.6 1.6.7 1.6 1.6 1.6zm0 .9c-1.4 0-2.5-1.1-2.5-2.5s1.1-2.5 2.5-2.5 2.5 1.1 2.5 2.5-1.1 2.5-2.5 2.5z"
    />
  </symbol>
  <symbol viewBox="0 0 25 25" id="svg-search-25px-p0">
    <title>search-25px-p0</title>
    <path d="M20.067 18.933l-4.157-4.157c.837-1.032 1.34-2.345 1.34-3.776 0-3.314-2.686-6-6-6s-6 2.686-6 6 2.686 6 6 6c1.43 0 2.744-.503 3.776-1.34l4.157 4.157c.113.113.27.183.442.183.345 0 .625-.28.625-.625 0-.173-.07-.33-.183-.442zM6.5 11c0-2.62 2.13-4.75 4.75-4.75S16 8.38 16 11s-2.13 4.75-4.75 4.75S6.5 13.62 6.5 11z"
    />
  </symbol>
  <symbol id="svg-twitter-29px-p0" viewBox="0 0 29 29">
<title>twitter-29px</title>
<path d="M21.967 11.8c.018 5.93-4.607 11.18-11.177 11.18-2.172 0-4.25-.62-6.047-1.76l-.268.422-.038.5.186.013.168.012c.3.02.44.032.6.046 2.06-.026 3.95-.686 5.49-1.86l1.12-.85-1.4-.048c-1.57-.055-2.92-1.08-3.36-2.51l-.48.146-.05.5c.22.03.48.05.75.08.48-.02.87-.07 1.25-.15l2.33-.49-2.32-.49c-1.68-.35-2.91-1.83-2.91-3.55 0-.05 0-.01-.01.03l-.49-.1-.25.44c.63.36 1.35.57 2.07.58l1.7.04L7.4 13c-.978-.662-1.59-1.79-1.618-3.047.028-.61.208-1.242.524-1.8l-.825.07c2.16 2.67 5.35 4.326 8.81 4.515l.59.033-.06-.59v-.02c-.05-.43-.06-.63-.06-.87 0-1.99 1.62-3.61 3.62-3.61 1.02 0 1.96.42 2.65 1.16l.2.21.28-.06c1.01-.22 1.94-.59 2.73-1.09l-.75-.56c-.1.36-.04.89.12 1.36.23.68.58 1.13 1.17.85l-.21-.45-.42-.27c-.52.8-1.17 1.48-1.92 2L22 11l.016.28c.013.2.014.35 0 .52v.04zm.998.038c.018-.22.017-.417 0-.66l-.498.034.284.41c.86-.592 1.61-1.364 2.2-2.267l.97-1.48-1.6.755c.17-.08.3-.02.34.03-.04-.048-.09-.155-.13-.292-.1-.297-.13-.64-.1-.766l.36-1.254-1.1.695c-.69.438-1.51.764-2.41.963l.48.15c-.87-.944-2.08-1.484-3.38-1.484-2.54 0-4.61 2.067-4.61 4.613 0 .29.02.51.08.984l.01.02.5-.06.03-.5c-3.17-.18-6.1-1.7-8.08-4.15l-.48-.56-.36.64c-.39.69-.62 1.48-.65 2.28.04 1.61.81 3.04 2.06 3.88l.3-.92c-.55-.02-1.11-.17-1.6-.45l-.59-.34-.14.67c-.02.08-.02.16 0 .24-.01 2.12 1.55 4.01 3.69 4.46l.1-.49-.1-.49c-.33.07-.67.12-1.03.14-.18-.02-.43-.05-.64-.07l-.76-.09.23.73c.57 1.84 2.29 3.14 4.28 3.21l-.28-.89c-1.38 1.04-3.06 1.63-4.85 1.66-.12-.01-.26-.02-.56-.05l-.17-.01-.18-.01L2.53 21l1.694 1.07c1.954 1.243 4.22 1.916 6.58 1.917 7.156 0 12.2-5.73 12.18-12.18l-.002.04z" />
</symbol>
  <symbol viewBox="0 0 21 21" id="svg-twitter-21px-p0">
    <title>twitter-21px</title>
    <path d="M6.985 18.45c-2.21 0-4.26-.645-5.985-1.74.305.024.615.043.905.07 1.85-.027 3.532-.65 4.872-1.67-1.712-.06-3.15-1.186-3.62-2.714.21.024.455.048.696.07.366-.022.71-.07 1.044-.14-1.79-.377-3.134-1.954-3.13-3.828-.004-.032-.004-.048 0-.07.522.298 1.123.473 1.738.488-1.022-.694-1.71-1.888-1.74-3.27.03-.686.222-1.356.557-1.95 1.923 2.378 4.796 3.93 8.004 4.106-.035-.298-.07-.596-.07-.905 0-2.15 1.746-3.897 3.898-3.897 1.122 0 2.135.474 2.853 1.253.88-.196 1.715-.52 2.436-.975-.26.918-.877 1.682-1.67 2.158C18.55 5.35 19.3 5.14 20 4.81c-.523.8-1.184 1.488-1.95 2.018.012.187.016.356 0 .557.016 5.122-3.905 11.066-11.065 11.066"
    fill-rule="evenodd" />
  </symbol>
  <symbol viewBox="0 0 1024 1024" id="svg-github">
    <title>github</title>
    <path d="M742.844575 631.975489c0 37.625946-19.615757 98.957803-65.967434 98.957803-46.403866 0-66.020646-61.331857-66.020646-98.957803 0-37.572734 19.61678-98.953709 66.020646-98.953709C723.228819 533.021779 742.844575 594.402755 742.844575 631.975489L742.844575 631.975489zM347.125929 533.021779c-46.350654 0-65.971527 61.380976-65.971527 98.953709 0 37.625946 19.620873 98.957803 65.971527 98.957803 46.350654 0 65.968457-61.331857 65.968457-98.957803C413.094386 594.402755 393.476583 533.021779 347.125929 533.021779L347.125929 533.021779zM940.705945 541.294187c0 57.242725-5.64558 118.020974-31.419594 170.57491C841.246723 849.457732 654.231375 862.823134 520.273431 862.823134c-136.028093 0-334.391906-11.803837-405.004127-150.95506-26.326599-52.049446-31.976272-113.332185-31.976272-170.57491 0-75.252915 20.630876-146.314367 70.104661-204.01451-9.280364-28.345582-13.915941-58.253752-13.915941-87.656409 0-38.635949 8.724709-77.219709 26.276457-112.323205 81.400938 0 133.451408 35.557844 195.285708 83.977623 52.05047-12.359492 105.613386-18.005073 159.229514-18.005073 48.415686 0 97.392144 5.191232 144.298454 16.491603 61.327764-47.916313 113.328092-82.464153 193.724143-82.464153 17.550725 35.054377 26.276457 73.687256 26.276457 112.323205 0 29.40368-4.63967 58.754149-13.920034 86.597287C920.129304 394.423141 940.705945 466.041272 940.705945 541.294187L940.705945 541.294187zM825.25961 631.975489c0-78.82937-47.863101-148.382469-131.888819-148.382469-33.996279 0-66.425875 6.205329-100.470249 10.846022-26.784016 4.133134-53.562916 5.64558-80.898495 5.64558-27.340695 0-54.119595-1.512447-80.902588-5.64558-33.488719-4.640694-66.474994-10.846022-100.467179-10.846022-83.9766 0-131.888819 69.553099-131.888819 148.382469 0 157.663856 144.245242 181.876304 269.981944 181.876304l86.597287 0C681.06451 813.900911 825.25961 789.639345 825.25961 631.975489L825.25961 631.975489zM825.25961 631.975489" />
  </symbol>
<symbol id="svg-response-29px-p0" viewBox="0 0 29 29">
<title>response-29px</title>
  <path d="M21.27 20.058c1.89-1.826 2.754-4.17 2.754-6.674C24.024 8.21 19.67 4 14.1 4 8.53 4 4 8.21 4 13.384c0 5.175 4.53 9.385 10.1 9.385 1.007 0 2-.14 2.95-.41.285.25.592.49.918.7 1.306.87 2.716 1.31 4.19 1.31.276-.01.494-.14.6-.36.106-.21.086-.46-.052-.65-.61-.84-1.042-1.71-1.282-2.58-.074-.27-.125-.52-.154-.75zm-3.85 1.324l-.083-.28-.388.12c-.92.282-1.88.424-2.85.424-4.96 0-8.99-3.706-8.99-8.262 0-4.556 4.03-8.263 8.99-8.263 4.95 0 8.77 3.71 8.77 8.27 0 2.25-.75 4.35-2.5 5.92l-.24.21v.32c0 .07 0 .19.02.37.03.29.1.6.19.92.19.7.49 1.4.89 2.08-.93-.14-1.83-.49-2.67-1.06-.34-.22-.88-.48-1.16-.74z" />
</symbol>
<symbol id="icon-arrow-circle-up" viewBox="0 0 21 24">
<title>arrow-circle-up</title>
<path class="path1" d="M17.196 11.987q0-0.362-0.241-0.603l-6.067-6.067q-0.241-0.241-0.603-0.241t-0.603 0.241l-6.067 6.067q-0.241 0.241-0.241 0.603t0.241 0.603l1.219 1.219q0.241 0.241 0.603 0.241t0.603-0.241l2.531-2.531v6.723q0 0.348 0.254 0.603t0.603 0.254h1.714q0.348 0 0.603-0.254t0.254-0.603v-6.723l2.531 2.531q0.254 0.254 0.603 0.254t0.603-0.254l1.219-1.219q0.241-0.241 0.241-0.603zM20.571 12q0 2.799-1.379 5.163t-3.743 3.743-5.163 1.379-5.163-1.379-3.743-3.743-1.379-5.163 1.379-5.163 3.743-3.743 5.163-1.379 5.163 1.379 3.743 3.743 1.379 5.163z" />
</symbol>
<symbol id="icon-angle-left" viewBox="0 0 9 24">
<title>angle-left</title>
<path class="path1" d="M8.397 7.286q0 0.174-0.134 0.308l-5.263 5.263 5.263 5.263q0.134 0.134 0.134 0.308t-0.134 0.308l-0.67 0.67q-0.134 0.134-0.308 0.134t-0.308-0.134l-6.241-6.241q-0.134-0.134-0.134-0.308t0.134-0.308l6.241-6.241q0.134-0.134 0.308-0.134t0.308 0.134l0.67 0.67q0.134 0.134 0.134 0.308z" />
</symbol>
<symbol id="icon-angle-right" viewBox="0 0 8 24">
<title>angle-right</title>
<path class="path1" d="M7.969 12.857q0 0.174-0.134 0.308l-6.241 6.241q-0.134 0.134-0.308 0.134t-0.308-0.134l-0.67-0.67q-0.134-0.134-0.134-0.308t0.134-0.308l5.263-5.263-5.263-5.263q-0.134-0.134-0.134-0.308t0.134-0.308l0.67-0.67q0.134-0.134 0.308-0.134t0.308 0.134l6.241 6.241q0.134 0.134 0.134 0.308z" />
</symbol>
</svg>